<svg version="1.1" xmlns="http://www.w3.org/2000/svg" viewBox="0 0 64.72042983185 67.385902000639" width="64.72042983185" height="67.385902000639" class="excalidraw-svg">
  <!-- svg-source:excalidraw -->
  
  <defs>
    <style class="style-fonts">
      
    </style>
    
  </defs>
  <g stroke-linecap="round" transform="translate(10 10) rotate(0 22.360214915925 23.692951000319503)"><path d="M-2 0.33 L45.41 1.28 L45.1 47.1 L1.38 46.96" stroke="none" stroke-width="0" fill="#000000"></path><path d="M1.12 0.85 C13.59 1.09, 25.55 1.21, 45.36 1.23 M-0.18 -0.5 C12.97 0.67, 26.56 0.01, 45.04 0.45 M46.7 -0.08 C44.71 16.31, 44.03 34.59, 43.11 47.23 M44.94 -0.41 C43.65 16.87, 44.31 32.5, 45.55 46.8 M43.21 46.48 C28.01 47.51, 13.17 46.75, 0.65 46.95 M45.32 46.72 C30.16 47.37, 12.8 48.04, 0.09 47.53 M-1.44 47.02 C1.21 28.52, -1.26 11.92, 0.39 -0.65 M0.92 46.87 C-0.49 35.11, -0.58 21.28, 0.66 -0.59" stroke="#000000" stroke-width="2" fill="none"></path></g><g transform="translate(32.62296585737087 52.196113524575395) rotate(0 5.893096092382386 -17.47766858596063)" stroke="none"><path fill="#ffffff" d="M -2.65,-2.77 Q -2.65,-2.77 -2.72,-3.83 -2.80,-4.89 -2.90,-6.31 -3.01,-7.73 -3.07,-8.87 -3.14,-10.00 -3.21,-11.42 -3.28,-12.85 -3.31,-13.97 -3.35,-15.10 -3.38,-16.21 -3.41,-17.32 -3.44,-18.42 -3.47,-19.51 -3.46,-20.68 -3.46,-21.86 -3.44,-23.01 -3.43,-24.17 -3.25,-25.44 -3.08,-26.71 -2.65,-28.09 -2.21,-29.47 -1.38,-30.88 -0.55,-32.29 0.63,-33.07 1.82,-33.85 3.01,-34.37 4.21,-34.90 5.41,-35.17 6.62,-35.45 8.05,-35.53 9.49,-35.62 10.54,-35.39 11.60,-35.16 12.84,-34.19 14.08,-33.21 14.85,-29.97 15.62,-26.74 15.53,-26.15 15.44,-25.56 15.16,-25.04 14.89,-24.51 14.47,-24.10 14.04,-23.69 13.50,-23.43 12.97,-23.18 12.38,-23.11 11.79,-23.04 11.21,-23.16 10.63,-23.28 10.12,-23.58 9.61,-23.89 9.22,-24.33 8.83,-24.78 8.61,-25.33 8.38,-25.88 8.34,-26.47 8.31,-27.06 8.46,-27.64 8.61,-28.21 8.94,-28.70 9.27,-29.20 9.74,-29.56 10.21,-29.92 10.77,-30.12 11.33,-30.31 11.92,-30.32 12.51,-30.32 13.08,-30.14 13.64,-29.96 14.12,-29.60 14.59,-29.25 14.93,-28.76 15.27,-28.27 15.43,-27.70 15.59,-27.13 15.57,-26.54 15.54,-25.95 15.33,-25.39 15.11,-24.84 14.73,-24.38 14.35,-23.93 13.85,-23.62 13.34,-23.31 12.76,-23.18 12.18,-23.04 11.59,-23.10 11.00,-23.16 10.46,-23.40 9.92,-23.65 9.49,-24.05 9.05,-24.46 8.77,-24.98 8.49,-25.50 8.39,-26.08 8.29,-26.67 8.29,-26.67 8.29,-26.67 8.32,-27.53 8.35,-28.39 7.27,-28.17 6.18,-27.96 5.22,-27.37 4.26,-26.79 3.88,-25.74 3.50,-24.69 3.38,-23.55 3.26,-22.41 3.19,-20.96 3.12,-19.51 3.10,-18.42 3.07,-17.32 3.04,-16.21 3.01,-15.10 2.97,-13.97 2.93,-12.85 2.86,-11.43 2.80,-10.02 2.74,-8.92 2.69,-7.82 2.65,-6.48 2.61,-5.15 2.64,-4.09 2.66,-3.03 2.64,-2.71 2.62,-2.39 2.52,-2.08 2.42,-1.77 2.25,-1.50 2.08,-1.23 1.85,-1.00 1.62,-0.78 1.35,-0.62 1.07,-0.45 0.76,-0.36 0.45,-0.27 0.13,-0.25 -0.18,-0.24 -0.49,-0.30 -0.81,-0.36 -1.10,-0.50 -1.39,-0.63 -1.64,-0.83 -1.89,-1.03 -2.09,-1.29 -2.28,-1.54 -2.41,-1.84 -2.54,-2.13 -2.59,-2.45 -2.65,-2.77 -2.65,-2.77 L -2.65,-2.77 Z"></path></g><g transform="translate(24.1230061837407 34.363609815429115) rotate(0 8.931214915115632 0.47520294666027496)" stroke="none"><path fill="#ffffff" d="M 0.16,-2.60 Q 0.16,-2.60 1.35,-2.54 2.54,-2.49 3.68,-2.42 4.82,-2.36 6.10,-2.28 7.38,-2.19 8.53,-2.15 9.68,-2.10 11.40,-2.09 13.12,-2.08 15.89,-1.96 18.65,-1.84 19.07,-1.63 19.49,-1.42 19.82,-1.09 20.16,-0.76 20.37,-0.34 20.58,0.07 20.64,0.54 20.71,1.00 20.62,1.46 20.53,1.92 20.30,2.33 20.07,2.74 19.72,3.06 19.37,3.37 18.94,3.56 18.51,3.74 18.05,3.78 17.58,3.82 17.12,3.71 16.67,3.60 16.27,3.35 15.87,3.09 15.58,2.73 15.28,2.36 15.12,1.92 14.96,1.48 14.94,1.01 14.93,0.55 15.07,0.10 15.20,-0.34 15.48,-0.72 15.75,-1.11 16.13,-1.38 16.51,-1.66 16.96,-1.79 17.41,-1.93 17.88,-1.92 18.34,-1.91 18.79,-1.75 19.23,-1.59 19.59,-1.30 19.96,-1.00 20.21,-0.61 20.47,-0.21 20.58,0.23 20.70,0.69 20.66,1.15 20.62,1.62 20.44,2.05 20.25,2.49 19.94,2.84 19.63,3.19 19.22,3.42 18.81,3.65 18.35,3.74 17.89,3.83 17.43,3.77 16.96,3.70 16.96,3.70 16.96,3.70 14.96,3.64 12.96,3.57 11.18,3.44 9.40,3.30 8.21,3.23 7.03,3.15 5.73,3.07 4.44,2.98 3.32,2.88 2.21,2.78 1.02,2.69 -0.16,2.60 -0.47,2.54 -0.78,2.48 -1.06,2.35 -1.35,2.23 -1.60,2.03 -1.84,1.84 -2.04,1.59 -2.23,1.34 -2.36,1.05 -2.49,0.77 -2.54,0.46 -2.60,0.15 -2.58,-0.16 -2.56,-0.47 -2.47,-0.77 -2.37,-1.07 -2.21,-1.34 -2.05,-1.61 -1.82,-1.83 -1.60,-2.05 -1.33,-2.21 -1.06,-2.38 -0.76,-2.47 -0.46,-2.56 -0.15,-2.58 0.16,-2.60 0.16,-2.60 L 0.16,-2.60 Z"></path></g></svg>