<svg version="1.1" xmlns="http://www.w3.org/2000/svg" viewBox="0 0 83.8324547926953 64.00396535487825" width="83.8324547926953" height="64.00396535487825" class="excalidraw-svg">
  <!-- svg-source:excalidraw -->
  
  <defs>
    <style class="style-fonts">
      
    </style>
    
  </defs>
  <g stroke-linecap="round"><g transform="translate(13.909798181504016 12.531827321404144) rotate(0 28.123188567033637 0)"><path d="M-0.3 -2.51 C9.12 -2.76, 48.63 -0.25, 58.34 -0.23 M-3.91 2.29 C5.16 2.39, 47.08 3.76, 57.24 3.27" stroke="00000" stroke-width="4" fill="none"></path></g></g><mask></mask><g stroke-linecap="round"><g transform="translate(13.615588055367908 32.19287464686289) rotate(0 28.53939850160053 0)"><path d="M-2.77 1.26 C6.04 0.75, 45.38 -1.35, 54.96 -1.52 M0.92 -0.52 C10.42 -0.84, 50.33 0.62, 60.22 1.28" stroke="#000000" stroke-width="4" fill="none"></path></g></g><mask></mask><g stroke-linecap="round"><g transform="translate(14.795778924719855 52.37605023996327) rotate(0 29.474255662089845 0)"><path d="M1.36 0.66 C10.85 0.73, 48.17 1.77, 57.88 1.61 M-1.34 -1.44 C7.59 -2.29, 45.15 -3.2, 55.06 -2.53" stroke="#000000" stroke-width="4" fill="none"></path></g></g><mask></mask></svg>