<svg width="33" xmlns="http://www.w3.org/2000/svg" height="27" fill="none"><g class="excalidraw-svg" style="fill: rgb(0, 0, 0);"><path d="M6.862,5.301C12.751,5.656,17.262,5.953,26.137,5.301M6.862,5.301C11.861,5.918,16.579,5.521,26.137,5.301M26.137,5.301C28.916,5.742,30.870,6.930,30.949,10.203M26.137,5.301C30.248,4.345,30.416,7.375,30.949,10.203M30.949,10.203C31.563,13.027,31.470,17.450,30.949,20.009M30.949,10.203C31.081,13.518,30.742,17.523,30.949,20.009M30.949,20.009C31.085,23.304,28.682,24.255,26.137,24.911M30.949,20.009C31.591,23.117,28.549,24.612,26.137,24.911M26.137,24.911C20.868,24.182,13.780,24.127,6.862,24.911M26.137,24.911C21.889,24.779,17.288,25.103,6.862,24.911M6.862,24.911C4.343,24.328,1.538,23.858,2.050,20.009M6.862,24.911C4.086,24.959,2.596,23.100,2.050,20.009M2.050,20.009C1.187,17.839,1.503,13.785,2.050,10.203M2.050,20.009C2.104,17.200,2.038,14.758,2.050,10.203M2.050,10.203C2.149,6.387,3.242,5.847,6.862,5.301M2.050,10.203C2.514,7.256,3.488,4.566,6.862,5.301" fill="none" style="fill: none;" class="fills"/><g fill="none" class="strokes"><path d="M6.862,5.301C12.751,5.656,17.262,5.953,26.137,5.301M6.862,5.301C11.861,5.918,16.579,5.521,26.137,5.301M26.137,5.301C28.916,5.742,30.870,6.930,30.949,10.203M26.137,5.301C30.248,4.345,30.416,7.375,30.949,10.203M30.949,10.203C31.563,13.027,31.470,17.450,30.949,20.009M30.949,10.203C31.081,13.518,30.742,17.523,30.949,20.009M30.949,20.009C31.085,23.304,28.682,24.255,26.137,24.911M30.949,20.009C31.591,23.117,28.549,24.612,26.137,24.911M26.137,24.911C20.868,24.182,13.780,24.127,6.862,24.911M26.137,24.911C21.889,24.779,17.288,25.103,6.862,24.911M6.862,24.911C4.343,24.328,1.538,23.858,2.050,20.009M6.862,24.911C4.086,24.959,2.596,23.100,2.050,20.009M2.050,20.009C1.187,17.839,1.503,13.785,2.050,10.203M2.050,20.009C2.104,17.200,2.038,14.758,2.050,10.203M2.050,10.203C2.149,6.387,3.242,5.847,6.862,5.301M2.050,10.203C2.514,7.256,3.488,4.566,6.862,5.301" style="fill: none; stroke-width: 3; stroke: rgb(0, 0, 0); stroke-opacity: 1;" class="stroke-shape"/></g><path d="M5.328,5.706C13.948,5.624,21.598,5.666,27.254,5.706M5.328,5.706C9.942,6.487,14.953,5.952,27.254,5.706M27.254,5.706C28.960,6.522,29.949,5.831,30.014,8.517M27.254,5.706C28.437,5.844,29.448,7.216,30.014,8.517M30.014,8.517C30.746,10.374,30.599,12.337,30.014,14.139M30.014,8.517C30.273,10.246,30.006,10.929,30.014,14.139M30.014,14.139C30.537,15.486,28.308,16.512,27.254,16.950M30.014,14.139C29.502,15.691,28.175,16.092,27.254,16.950M27.254,16.950C21.840,16.140,14.395,16.098,5.328,16.950M27.254,16.950C18.746,16.909,11.039,17.326,5.328,16.950M5.328,16.950C3.893,16.232,2.372,16.157,2.569,14.139M5.328,16.950C3.477,17.851,2.852,15.298,2.569,14.139M2.569,14.139C3.139,12.423,2.009,12.007,2.569,8.517M2.569,14.139C2.478,12.798,2.819,10.681,2.569,8.517M2.569,8.517C2.493,6.159,4.299,5.253,5.328,5.706M2.569,8.517C3.489,7.379,2.755,5.284,5.328,5.706" fill="none" style="fill: none;" class="fills"/><g fill="none" class="strokes"><path d="M5.328,5.706C13.948,5.624,21.598,5.666,27.254,5.706M5.328,5.706C9.942,6.487,14.953,5.952,27.254,5.706M27.254,5.706C28.960,6.522,29.949,5.831,30.014,8.517M27.254,5.706C28.437,5.844,29.448,7.216,30.014,8.517M30.014,8.517C30.746,10.374,30.599,12.337,30.014,14.139M30.014,8.517C30.273,10.246,30.006,10.929,30.014,14.139M30.014,14.139C30.537,15.486,28.308,16.512,27.254,16.950M30.014,14.139C29.502,15.691,28.175,16.092,27.254,16.950M27.254,16.950C21.840,16.140,14.395,16.098,5.328,16.950M27.254,16.950C18.746,16.909,11.039,17.326,5.328,16.950M5.328,16.950C3.893,16.232,2.372,16.157,2.569,14.139M5.328,16.950C3.477,17.851,2.852,15.298,2.569,14.139M2.569,14.139C3.139,12.423,2.009,12.007,2.569,8.517M2.569,14.139C2.478,12.798,2.819,10.681,2.569,8.517M2.569,8.517C2.493,6.159,4.299,5.253,5.328,5.706M2.569,8.517C3.489,7.379,2.755,5.284,5.328,5.706" style="fill: none; stroke-width: 3; stroke: rgb(0, 0, 0); stroke-opacity: 1;" class="stroke-shape"/></g><path d="M12.775,13.326C12.775,13.326,12.904,13.328,13.161,13.334C13.419,13.338,13.622,13.335,13.770,13.326C13.916,13.314,14.112,13.311,14.358,13.315C14.606,13.318,14.874,13.326,15.164,13.340C15.452,13.354,15.806,13.366,16.224,13.376C16.642,13.387,17.051,13.396,17.450,13.403C17.849,13.411,18.270,13.410,18.713,13.399C19.157,13.389,19.399,13.387,19.437,13.392C19.475,13.399,19.511,13.412,19.545,13.430C19.580,13.449,19.610,13.473,19.638,13.501C19.664,13.530,19.685,13.563,19.701,13.599C19.718,13.635,19.728,13.673,19.732,13.712C19.736,13.750,19.734,13.788,19.726,13.827C19.718,13.866,19.703,13.902,19.683,13.935C19.664,13.969,19.639,13.999,19.609,14.025C19.579,14.050,19.546,14.070,19.511,14.086C19.474,14.100,19.436,14.108,19.398,14.111C19.360,14.112,19.321,14.108,19.283,14.098C19.246,14.087,19.211,14.070,19.178,14.048C19.147,14.026,19.120,13.999,19.096,13.967C19.073,13.936,19.055,13.902,19.041,13.864C19.029,13.827,19.023,13.789,19.023,13.750C19.023,13.711,19.029,13.672,19.041,13.635C19.055,13.597,19.073,13.563,19.096,13.532C19.120,13.500,19.147,13.473,19.178,13.451C19.211,13.429,19.246,13.412,19.283,13.401C19.321,13.391,19.360,13.387,19.398,13.388C19.438,13.391,19.475,13.399,19.511,13.413C19.546,13.429,19.579,13.449,19.609,13.474C19.639,13.500,19.664,13.530,19.683,13.564C19.703,13.598,19.718,13.635,19.726,13.672C19.734,13.711,19.736,13.750,19.732,13.787C19.728,13.828,19.718,13.865,19.701,13.900C19.685,13.936,19.664,13.969,19.638,13.998C19.610,14.026,19.580,14.050,19.545,14.069C19.511,14.087,19.475,14.100,19.437,14.107C19.399,14.112,19.379,14.115,19.379,14.115C19.379,14.115,19.157,14.110,18.713,14.100C18.270,14.089,17.849,14.088,17.450,14.096C17.051,14.103,16.642,14.112,16.224,14.123C15.806,14.133,15.452,14.145,15.164,14.159C14.874,14.173,14.606,14.181,14.358,14.184C14.112,14.188,13.916,14.185,13.770,14.174C13.622,14.164,13.419,14.161,13.161,14.165C12.904,14.171,12.759,14.171,12.726,14.167C12.693,14.163,12.661,14.155,12.630,14.142C12.598,14.131,12.569,14.116,12.542,14.096C12.514,14.077,12.489,14.054,12.466,14.027C12.444,14.002,12.425,13.974,12.410,13.944C12.394,13.915,12.382,13.883,12.374,13.850C12.365,13.816,12.361,13.783,12.361,13.750C12.361,13.716,12.365,13.683,12.374,13.649C12.382,13.616,12.394,13.585,12.410,13.555C12.425,13.525,12.444,13.497,12.466,13.472C12.489,13.445,12.514,13.422,12.542,13.403C12.569,13.383,12.598,13.368,12.630,13.357C12.661,13.344,12.693,13.336,12.775,13.326ZC12.759,13.328,12.775,13.326,12.775,13.326ZL12.775,13.326ZZ" style="fill: rgb(0, 0, 0); fill-opacity: 1;" class="fills"/><path d="M10.235,5.636C10.296,5.095,10.559,2.938,10.608,2.389M10.120,5.565C10.165,5.035,10.479,3.040,10.530,2.514" fill="none" style="fill: none;" class="fills"/><g fill="none" class="strokes"><path d="M10.235,5.636C10.296,5.095,10.559,2.938,10.608,2.389M10.120,5.565C10.165,5.035,10.479,3.040,10.530,2.514" style="fill: none; stroke-width: 3; stroke: rgb(0, 0, 0); stroke-opacity: 1;" class="stroke-shape"/></g><path d="M10.928,2.466C12.550,2.470,19.152,2.654,20.786,2.681M11.092,2.660C12.691,2.629,19.035,2.575,20.677,2.537" fill="none" style="fill: none;" class="fills"/><g fill="none" class="strokes"><path d="M10.928,2.466C12.550,2.470,19.152,2.654,20.786,2.681M11.092,2.660C12.691,2.629,19.035,2.575,20.677,2.537" style="fill: none; stroke-width: 3; stroke: rgb(0, 0, 0); stroke-opacity: 1;" class="stroke-shape"/></g><path d="M21.413,2.214C21.458,2.729,21.481,4.797,21.520,5.309M21.317,2.088C21.405,2.579,21.688,4.659,21.735,5.158" fill="none" style="fill: none;" class="fills"/><g fill="none" class="strokes"><path d="M21.413,2.214C21.458,2.729,21.481,4.797,21.520,5.309M21.317,2.088C21.405,2.579,21.688,4.659,21.735,5.158" style="fill: none; stroke-width: 3; stroke: rgb(0, 0, 0); stroke-opacity: 1;" class="stroke-shape"/></g></g></svg>