<svg version="1.1" xmlns="http://www.w3.org/2000/svg" viewBox="0 0 66.37032037882173 65.33215553039113" width="66.37032037882173" height="65.33215553039113" class="excalidraw-svg">
  <!-- svg-source:excalidraw -->
  
  <defs>
    <style class="style-fonts">
      
    </style>
    
  </defs>
  <g stroke-linecap="round" transform="translate(10 10) rotate(0 23.185160189410865 22.666077765195567)"><path d="M-0.88 -1.47 L45.77 0.15 L47.69 44.78 L-1.97 47.19" stroke="none" stroke-width="0" fill="#000000"></path><path d="M-1.88 0.13 C17.76 0.42, 33.12 -0.83, 45.7 -0.66 M-0.33 0.57 C15.03 0.89, 29.51 0.94, 45.56 -0.91 M44.66 -0.28 C46.7 8.06, 45.87 18.88, 45.1 45.13 M45.43 -0.94 C46.43 15.09, 47.31 30.49, 46.91 44.87 M45.23 46.94 C30.59 45.4, 15.95 46.28, -0.38 47.3 M46.69 45.09 C36.26 44.46, 25.16 45.56, 0.05 46.13 M1.42 43.72 C1.39 32.87, 1.47 20.57, 0.29 -1.01 M0.27 45.73 C0.21 28.2, -0.93 10.29, -0.9 -0.5" stroke="#000000" stroke-width="2" fill="none"></path></g><g stroke-linecap="round" transform="translate(18.478128451514863 17.09395815603203) rotate(0 15.226061359524962 15.942789029132157)"><path d="M7.61 0 C10.89 1.3, 14.2 -1.08, 22.84 0 M7.61 0 C12.69 0.29, 17.14 0.29, 22.84 0 M22.84 0 C27.9 -0.19, 31.99 2, 30.45 7.61 M22.84 0 C26.61 1.23, 31.22 3.04, 30.45 7.61 M30.45 7.61 C29.36 14.19, 30.43 20.7, 30.45 24.27 M30.45 7.61 C30.27 12.57, 30.9 19.37, 30.45 24.27 M30.45 24.27 C28.89 29.39, 27.45 31.99, 22.84 31.89 M30.45 24.27 C30.14 28.52, 27.75 33.07, 22.84 31.89 M22.84 31.89 C17.62 31.31, 15.63 30.6, 7.61 31.89 M22.84 31.89 C18.96 31.53, 16.19 31.14, 7.61 31.89 M7.61 31.89 C1.07 32.53, 0.42 29.03, 0 24.27 M7.61 31.89 C4.2 31.37, 0.07 31.48, 0 24.27 M0 24.27 C-1.47 21.4, 0.93 16.61, 0 7.61 M0 24.27 C0.57 18.92, -0.19 13.23, 0 7.61 M0 7.61 C0.27 3.05, 0.98 0.63, 7.61 0 M0 7.61 C1.17 1.77, 4.28 -1.3, 7.61 0" stroke="#ffffff" stroke-width="4" fill="none"></path></g><g stroke-linecap="round" transform="translate(25.74512398277028 27.12932067954634) rotate(0 7.180471893401318 7.093964756355383)"><path d="M6.58 -0.11 C8 -0.23, 10.49 0.78, 11.71 1.72 C12.93 2.65, 13.64 4.03, 13.89 5.5 C14.14 6.97, 13.86 9.14, 13.21 10.55 C12.57 11.95, 11.36 13.33, 10.02 13.92 C8.67 14.52, 6.55 14.53, 5.12 14.11 C3.7 13.69, 2.26 12.66, 1.44 11.39 C0.63 10.12, 0.04 8.12, 0.25 6.49 C0.46 4.86, 1.54 2.69, 2.71 1.61 C3.88 0.52, 6.54 0.19, 7.26 -0.02 C7.97 -0.23, 7.13 0.23, 7.02 0.33 M6.57 0.75 C7.99 0.63, 9.37 0.92, 10.65 1.65 C11.93 2.39, 13.76 3.78, 14.24 5.17 C14.72 6.56, 14.31 8.71, 13.53 10.01 C12.76 11.3, 11.07 12.36, 9.59 12.92 C8.11 13.47, 6.12 13.54, 4.67 13.32 C3.23 13.1, 1.66 12.69, 0.92 11.6 C0.17 10.51, -0.1 8.31, 0.19 6.79 C0.48 5.26, 1.7 3.53, 2.67 2.44 C3.63 1.35, 5.36 0.67, 5.99 0.25 C6.62 -0.17, 6.35 -0.13, 6.44 -0.08" stroke="#ffffff" stroke-width="4" fill="none"></path></g><g transform="translate(41.83631611566415 23.66885038865705) rotate(0 0.00005000000000165983 0.00005000000000165983)" stroke="none"><path fill="#ffffff" d="M 0.78,-0.78 Q 0.78,-0.78 0.88,-0.63 0.99,-0.49 1.04,-0.32 1.10,-0.14 1.09,0.02 1.09,0.20 1.02,0.37 0.96,0.54 0.85,0.68 0.74,0.82 0.59,0.92 0.43,1.02 0.26,1.06 0.09,1.10 -0.08,1.09 -0.26,1.07 -0.43,1.00 -0.59,0.93 -0.73,0.81 -0.86,0.69 -0.95,0.53 -1.04,0.38 -1.07,0.20 -1.10,0.02 -1.08,-0.14 -1.06,-0.32 -0.98,-0.48 -0.90,-0.64 -0.77,-0.77 -0.64,-0.90 -0.48,-0.98 -0.32,-1.06 -0.14,-1.08 0.03,-1.10 0.20,-1.07 0.38,-1.04 0.53,-0.95 0.69,-0.86 0.81,-0.73 0.93,-0.59 1.00,-0.43 1.07,-0.26 1.09,-0.08 1.10,0.09 1.06,0.26 1.01,0.43 0.92,0.59 0.82,0.74 0.68,0.85 0.54,0.96 0.37,1.02 0.20,1.09 0.02,1.09 -0.15,1.10 -0.32,1.04 -0.49,0.99 -0.63,0.88 -0.78,0.78 -0.78,0.78 -0.78,0.78 -0.86,0.67 -0.95,0.57 -1.00,0.45 -1.06,0.33 -1.08,0.19 -1.10,0.06 -1.10,-0.06 -1.09,-0.20 -1.05,-0.32 -1.01,-0.45 -0.94,-0.57 -0.87,-0.68 -0.77,-0.77 -0.68,-0.87 -0.57,-0.94 -0.45,-1.01 -0.32,-1.05 -0.20,-1.09 -0.06,-1.10 0.06,-1.10 0.19,-1.08 0.33,-1.06 0.45,-1.00 0.57,-0.95 0.67,-0.86 0.78,-0.78 0.78,-0.78 L 0.78,-0.78 Z"></path></g></svg>