<svg width="44.895" xmlns="http://www.w3.org/2000/svg" height="47.572" fill="none"><g class="excalidraw-svg" style="fill: rgb(0, 0, 0);"><path d="M33.973,37.026C32.863,34.896,28.253,26.266,27.103,24.166M34.853,36.776C33.713,34.676,28.033,26.626,26.683,24.656" fill="none" style="fill: none;" class="fills"/><g fill="none" class="strokes"><path d="M33.973,37.026C32.863,34.896,28.253,26.266,27.103,24.166M34.853,36.776C33.713,34.676,28.033,26.626,26.683,24.656" style="fill: none; stroke-width: 3; stroke: rgb(0, 0, 0); stroke-opacity: 1;" class="stroke-shape"/></g><path d="M34.165,37.576C30.245,37.356,14.885,35.796,11.055,35.536M34.895,37.306C30.895,37.186,14.585,36.486,10.585,36.106" fill="none" style="fill: none;" class="fills"/><g fill="none" class="strokes"><path d="M34.165,37.576C30.245,37.356,14.885,35.796,11.055,35.536M34.895,37.306C30.895,37.186,14.585,36.486,10.585,36.106" style="fill: none; stroke-width: 3; stroke: rgb(0, 0, 0); stroke-opacity: 1;" class="stroke-shape"/></g><path d="M10.429,35.314C11.669,33.654,16.759,27.004,18.029,25.424M9.999,35.024C11.339,33.414,17.439,27.454,18.729,25.834" fill="none" style="fill: none;" class="fills"/><g fill="none" class="strokes"><path d="M10.429,35.314C11.669,33.654,16.759,27.004,18.029,25.424M9.999,35.024C11.339,33.414,17.439,27.454,18.729,25.834" style="fill: none; stroke-width: 3; stroke: rgb(0, 0, 0); stroke-opacity: 1;" class="stroke-shape"/></g><path d="M19.890,25.291C19.890,23.131,19.590,14.221,19.660,12.141M19.190,24.851C19.410,22.751,20.580,14.751,20.740,12.581" fill="none" style="fill: none;" class="fills"/><g fill="none" class="strokes"><path d="M19.890,25.291C19.890,23.131,19.590,14.221,19.660,12.141M19.190,24.851C19.410,22.751,20.580,14.751,20.740,12.581" style="fill: none; stroke-width: 3; stroke: rgb(0, 0, 0); stroke-opacity: 1;" class="stroke-shape"/></g><path d="M26.736,23.933C26.676,22.053,26.036,14.643,25.966,12.893M26.186,23.343C26.316,21.553,27.066,15.363,27.046,13.573" fill="none" style="fill: none;" class="fills"/><g fill="none" class="strokes"><path d="M26.736,23.933C26.676,22.053,26.036,14.643,25.966,12.893M26.186,23.343C26.316,21.553,27.066,15.363,27.046,13.573" style="fill: none; stroke-width: 3; stroke: rgb(0, 0, 0); stroke-opacity: 1;" class="stroke-shape"/></g><path d="M19.491,10.004C20.661,10.084,25.241,10.524,26.431,10.724M19.181,10.684C20.451,10.814,25.911,11.094,27.111,11.094" fill="none" style="fill: none;" class="fills"/><g fill="none" class="strokes"><path d="M19.491,10.004C20.661,10.084,25.241,10.524,26.431,10.724M19.181,10.684C20.451,10.814,25.911,11.094,27.111,11.094" style="fill: none; stroke-width: 3; stroke: rgb(0, 0, 0); stroke-opacity: 1;" class="stroke-shape"/></g><path d="M16.147,32.939C18.257,32.989,26.837,32.939,29.047,33.139M16.937,32.709C19.007,32.779,26.607,33.459,28.677,33.579" fill="none" style="fill: none;" class="fills"/><g fill="none" class="strokes"><path d="M16.147,32.939C18.257,32.989,26.837,32.939,29.047,33.139M16.937,32.709C19.007,32.779,26.607,33.459,28.677,33.579" style="fill: none; stroke-width: 3; stroke: rgb(0, 0, 0); stroke-opacity: 1;" class="stroke-shape"/></g><path d="M17.183,31.319C18.853,31.439,26.093,31.509,27.873,31.639M17.913,30.809C19.513,31.039,25.893,32.139,27.493,32.189" fill="none" style="fill: none;" class="fills"/><g fill="none" class="strokes"><path d="M17.183,31.319C18.853,31.439,26.093,31.509,27.873,31.639M17.913,30.809C19.513,31.039,25.893,32.139,27.493,32.189" style="fill: none; stroke-width: 3; stroke: rgb(0, 0, 0); stroke-opacity: 1;" class="stroke-shape"/></g></g></svg>