<svg version="1.1" xmlns="http://www.w3.org/2000/svg" viewBox="0 0 66.66368186350803 61.31907018304392" width="66.66368186350803" height="61.31907018304392" class="excalidraw-svg">
  <!-- svg-source:excalidraw -->
  
  <defs>
    <style class="style-fonts">
      
    </style>
    
  </defs>
  <g stroke-linecap="round" transform="translate(10 10) rotate(0 13.711306615860906 12.723521948408703)"><path d="M6.36 0 C9.45 0.51, 15.96 -1.4, 21.06 0 M6.36 0 C11.71 0.64, 17.6 0.09, 21.06 0 M21.06 0 C26.73 -2, 25.59 3.97, 27.42 6.36 M21.06 0 C25.69 -1.03, 26.58 3.61, 27.42 6.36 M27.42 6.36 C26.88 8.84, 26.16 12.59, 27.42 19.09 M27.42 6.36 C27.89 10.34, 27.6 13.77, 27.42 19.09 M27.42 19.09 C28.37 24.79, 25.89 24.61, 21.06 25.45 M27.42 19.09 C29.57 22.88, 25.71 26.48, 21.06 25.45 M21.06 25.45 C17.05 24.79, 12.5 25.43, 6.36 25.45 M21.06 25.45 C14.79 25.89, 9.51 24.73, 6.36 25.45 M6.36 25.45 C3.13 26.79, 1.33 24.06, 0 19.09 M6.36 25.45 C2.18 26.1, -2.12 21.43, 0 19.09 M0 19.09 C0.25 16.32, -1.18 11.81, 0 6.36 M0 19.09 C-0.4 14.85, 0.31 11.17, 0 6.36 M0 6.36 C-1 1.5, 0.23 0.25, 6.36 0 M0 6.36 C1.56 3.54, 2.41 0.14, 6.36 0" stroke="#1e1e1e" stroke-width="2" fill="none"></path></g><g stroke-linecap="round" transform="translate(42.140035164304834 10.144329542525213) rotate(0 7.164895453495845 12.60183281108202)"><path d="M3.58 0 C6.05 0.5, 7.28 0.44, 10.75 0 M3.58 0 C5.73 0.16, 8.08 -0.1, 10.75 0 M10.75 0 C12.07 -1.09, 14.47 -0.7, 14.33 3.58 M10.75 0 C13.47 -2.23, 15.17 2.09, 14.33 3.58 M14.33 3.58 C14.5 7.08, 16.03 11.91, 14.33 21.62 M14.33 3.58 C13.63 10.07, 14.61 14.48, 14.33 21.62 M14.33 21.62 C13.6 25.31, 11.74 25.29, 10.75 25.2 M14.33 21.62 C14.79 23.02, 12.32 22.91, 10.75 25.2 M10.75 25.2 C8.39 25.79, 6.21 25.46, 3.58 25.2 M10.75 25.2 C8.95 25.11, 7.27 25.19, 3.58 25.2 M3.58 25.2 C1.55 26.1, -0.65 23.84, 0 21.62 M3.58 25.2 C1.11 25.08, -1.03 22.91, 0 21.62 M0 21.62 C-1.75 14.56, 1.27 9.96, 0 3.58 M0 21.62 C0.51 17.97, -0.07 13.92, 0 3.58 M0 3.58 C-1.84 -0.46, 0.9 0.95, 3.58 0 M0 3.58 C2.21 1.76, 2.75 -2.02, 3.58 0" stroke="#1e1e1e" stroke-width="2" fill="none"></path></g><g stroke-linecap="round" transform="translate(27.684311177802073 22.25539011360638) rotate(269.7245458865725 5.728663706730245 23.223434448242188)"><path d="M2.86 0 C4.44 -0.48, 6.66 -0.13, 8.59 0 M2.86 0 C4.61 0.24, 6.67 0.07, 8.59 0 M8.59 0 C8.72 -1, 13.41 1.47, 11.46 2.86 M8.59 0 C11.4 1.16, 11.68 -0.67, 11.46 2.86 M11.46 2.86 C13.14 15.91, 10.33 29.92, 11.46 43.58 M11.46 2.86 C10.31 15.36, 10.88 29.2, 11.46 43.58 M11.46 43.58 C12.39 45.28, 12.2 48.22, 8.59 46.45 M11.46 43.58 C10.46 44.29, 8.77 46.99, 8.59 46.45 M8.59 46.45 C6.6 46.01, 6.07 46.96, 2.86 46.45 M8.59 46.45 C7.23 46.71, 5.63 46.4, 2.86 46.45 M2.86 46.45 C2.39 48.12, 0.78 44.43, 0 43.58 M2.86 46.45 C2.62 48.1, 1.87 43.49, 0 43.58 M0 43.58 C1.14 30.17, -0.48 14.71, 0 2.86 M0 43.58 C0.89 30.19, 0.82 17.91, 0 2.86 M0 2.86 C0.34 2.35, 0.64 1.17, 2.86 0 M0 2.86 C0.56 0.63, -0.27 -1.26, 2.86 0" stroke="#1e1e1e" stroke-width="2" fill="none"></path></g></svg>