<svg version="1.1" xmlns="http://www.w3.org/2000/svg" viewBox="0 0 56.98454552982852 87.6282525636102" width="56.98454552982852" height="87.6282525636102" class="excalidraw-svg">
  <!-- svg-source:excalidraw -->
  
  <defs>
    <style class="style-fonts">
      
    </style>
    
  </defs>
  <g stroke-linecap="round" transform="translate(10 10) rotate(0 18.49227276491426 18.295915061361654)"><path d="M23.17 1.06 C27.1 1.61, 31.89 4.26, 34.3 7.42 C36.71 10.58, 38.16 16.09, 37.65 20.04 C37.14 23.99, 34.13 28.23, 31.22 31.14 C28.32 34.04, 23.98 37.16, 20.22 37.47 C16.47 37.78, 12.09 35.54, 8.67 33 C5.26 30.46, 0.87 26.11, -0.26 22.23 C-1.4 18.34, 0.14 13.08, 1.84 9.68 C3.54 6.29, 6.36 3.33, 9.91 1.86 C13.47 0.39, 20.63 0.98, 23.19 0.88 C25.75 0.78, 25.35 0.97, 25.27 1.28 M18.34 -1.39 C22.39 -1.41, 28.81 0.9, 31.65 3.66 C34.49 6.42, 34.96 11.2, 35.36 15.19 C35.76 19.18, 35.73 24.2, 34.04 27.59 C32.36 30.99, 29.07 34.33, 25.24 35.56 C21.41 36.78, 14.89 36.59, 11.08 34.96 C7.28 33.33, 4.05 29.41, 2.41 25.76 C0.77 22.12, 0.3 16.78, 1.25 13.07 C2.2 9.36, 5.17 5.56, 8.09 3.5 C11.02 1.43, 16.7 1.31, 18.82 0.68 C20.93 0.04, 20.81 -0.48, 20.78 -0.31" stroke="#a3a3a3" stroke-width="4" fill="none"></path></g><g stroke-linecap="round"><g transform="translate(30.07598511730891 45.19799537504167) rotate(0 0.5921214104347605 15.356355876669241)"><path d="M0.16 0.37 C0.37 5.46, 0.26 25.93, 0.62 31.1 M-1.21 -0.49 C-1.15 4.19, -1.18 24.2, -0.63 29.19" stroke="#a3a3a3" stroke-width="4" fill="none"></path></g></g><mask></mask><g stroke-linecap="round" transform="translate(14.3011988211775 10.516442870577237) rotate(0 14.5 17.5)"><path d="M15.74 0.12 C18.62 -0.22, 21.95 1.35, 24.07 3.77 C26.19 6.2, 27.98 10.93, 28.43 14.66 C28.89 18.39, 28.41 22.79, 26.78 26.16 C25.15 29.54, 21.63 33.59, 18.64 34.93 C15.65 36.28, 11.62 35.67, 8.82 34.24 C6.03 32.81, 3.33 29.86, 1.87 26.37 C0.41 22.88, -0.62 17.08, 0.08 13.3 C0.79 9.53, 3.18 5.98, 6.11 3.72 C9.05 1.46, 15.17 -0.01, 17.68 -0.25 C20.19 -0.48, 21.18 1.84, 21.18 2.31 M16.48 0.92 C19.27 1.38, 24.11 4.79, 26.22 7.56 C28.34 10.33, 29.5 13.76, 29.17 17.54 C28.83 21.32, 26.27 27.37, 24.21 30.25 C22.16 33.14, 19.63 34.74, 16.85 34.86 C14.07 34.98, 10.35 33.26, 7.55 30.99 C4.75 28.71, 1.24 24.58, 0.05 21.22 C-1.13 17.85, -0.89 13.86, 0.45 10.78 C1.79 7.7, 5.36 4.26, 8.12 2.75 C10.88 1.23, 15.21 2.16, 17.03 1.69 C18.85 1.21, 19.1 0.03, 19.05 -0.11" stroke="#a3a3a3" stroke-width="4" fill="none"></path></g><g transform="translate(26.540291752108857 22.692326731506824) rotate(0 4 12.5)"><text x="4" y="17.619999999999997" font-family="Excalifont, Xiaolai, Segoe UI Emoji" font-size="20px" fill="#a3a3a3" text-anchor="middle" style="white-space: pre;" direction="ltr" dominant-baseline="alphabetic"></text></g><g stroke-linecap="round"><g transform="translate(26.81075514180428 45.0134102519429) rotate(0 1.1304803312653142 15.760131485067319)"><path d="M-0.42 -0.84 C-0.03 4.38, 1.17 25.82, 1.77 31.23 M1.55 1.34 C1.79 6.74, 0.34 27.34, 0.57 32.61" stroke="#a3a3a3" stroke-width="4" fill="none"></path></g></g><mask></mask></svg>