<svg width="70" xmlns="http://www.w3.org/2000/svg" height="58" fill="none"><g class="excalidraw-svg" style="fill: rgb(0, 0, 0);"><path d="M16.580,22.142C16.580,22.142,16.818,22.156,17.294,22.183C17.760,22.218,18.250,22.160,18.762,22.008C19.274,21.856,19.864,21.591,20.531,21.215C21.199,20.848,21.903,20.422,22.644,19.939C23.385,19.455,24.144,18.958,24.922,18.447C25.699,17.945,26.353,17.502,26.883,17.117C27.414,16.731,27.976,16.319,28.571,15.880C29.174,15.441,29.819,15.038,30.505,14.671C31.200,14.295,31.918,13.909,32.659,13.515C33.409,13.121,34.100,12.767,34.731,12.454C35.353,12.140,35.901,11.885,36.377,11.688C36.853,11.499,37.493,11.455,38.298,11.553C39.093,11.661,39.752,11.885,40.273,12.225C40.795,12.574,41.412,13.107,42.125,13.824C42.839,14.541,43.497,15.190,44.101,15.773C44.704,16.355,45.413,17.045,46.227,17.842C47.032,18.639,47.819,19.388,48.587,20.086C49.355,20.794,50.078,21.457,50.755,22.075C51.422,22.693,52.049,23.244,52.634,23.728C53.219,24.203,54.061,24.821,55.158,25.582C56.256,26.353,56.859,26.787,56.969,26.886C57.079,26.976,57.175,27.083,57.257,27.208C57.331,27.343,57.381,27.482,57.408,27.625C57.445,27.768,57.454,27.912,57.436,28.055C57.417,28.198,57.376,28.337,57.312,28.472C57.248,28.606,57.161,28.727,57.052,28.835C56.951,28.933,56.837,29.018,56.709,29.090C56.571,29.153,56.430,29.197,56.283,29.224C56.137,29.242,55.986,29.242,55.831,29.224C55.684,29.197,55.547,29.148,55.419,29.076C55.291,29.005,55.172,28.915,55.062,28.808C54.962,28.700,54.879,28.579,54.815,28.445C54.760,28.310,54.724,28.172,54.706,28.028C54.696,27.885,54.706,27.742,54.733,27.598C54.770,27.455,54.829,27.320,54.911,27.195C54.985,27.070,55.081,26.958,55.199,26.859C55.309,26.770,55.437,26.698,55.584,26.644C55.721,26.590,55.863,26.559,56.009,26.550C56.164,26.550,56.311,26.568,56.448,26.604C56.594,26.649,56.731,26.711,56.859,26.792C56.978,26.873,57.084,26.971,57.175,27.088C57.266,27.213,57.335,27.343,57.381,27.477C57.427,27.621,57.449,27.764,57.449,27.907C57.440,28.060,57.413,28.203,57.367,28.337C57.321,28.472,57.253,28.597,57.161,28.714C57.061,28.830,56.951,28.929,56.832,29.009C56.704,29.090,56.567,29.153,56.420,29.197C56.283,29.233,56.137,29.247,55.981,29.238C55.835,29.229,55.693,29.197,55.556,29.144C55.410,29.081,55.341,29.050,55.350,29.050C55.350,29.050,54.751,28.611,53.553,27.733C52.364,26.855,51.477,26.165,50.892,25.663C50.316,25.161,49.680,24.633,48.985,24.077C48.290,23.522,47.512,22.931,46.653,22.304C45.793,21.668,44.910,21.014,44.005,20.342C43.108,19.661,42.322,19.070,41.645,18.568C40.968,18.066,40.109,17.493,39.066,16.848C38.032,16.203,37.228,16.015,36.651,16.283C36.075,16.543,35.398,16.879,34.621,17.291C33.834,17.703,33.162,18.044,32.604,18.313C32.046,18.590,31.516,18.895,31.013,19.226C30.510,19.567,29.924,19.956,29.257,20.395C28.580,20.834,27.867,21.282,27.117,21.739C26.376,22.205,25.786,22.586,25.347,22.881C24.908,23.168,24.304,23.518,23.536,23.930C22.768,24.342,22.137,24.664,21.643,24.897C21.149,25.130,20.358,25.341,19.269,25.529C18.190,25.717,17.417,25.784,16.951,25.730C16.484,25.668,16.183,25.623,16.045,25.596C15.899,25.560,15.762,25.511,15.634,25.448C15.506,25.385,15.387,25.309,15.277,25.220C15.158,25.130,15.058,25.027,14.975,24.911C14.893,24.803,14.824,24.682,14.769,24.548C14.715,24.413,14.678,24.279,14.660,24.145C14.632,24.001,14.628,23.862,14.646,23.728C14.655,23.585,14.683,23.446,14.728,23.311C14.783,23.177,14.847,23.052,14.920,22.935C15.003,22.819,15.099,22.711,15.209,22.613C15.309,22.514,15.423,22.434,15.551,22.371C15.680,22.299,15.812,22.245,15.949,22.210C16.087,22.174,16.228,22.151,16.375,22.142C16.512,22.142,16.580,22.142,16.580,22.142ZL16.580,22.142ZZ" style="fill: rgb(0, 0, 0); fill-opacity: 1;" class="fills"/><g class="strokes"><g class="inner-stroke-shape"><defs><clipPath id="b"><use href="#a"/></clipPath><path d="M16.580,22.142C16.580,22.142,16.818,22.156,17.294,22.183C17.760,22.218,18.250,22.160,18.762,22.008C19.274,21.856,19.864,21.591,20.531,21.215C21.199,20.848,21.903,20.422,22.644,19.939C23.385,19.455,24.144,18.958,24.922,18.447C25.699,17.945,26.353,17.502,26.883,17.117C27.414,16.731,27.976,16.319,28.571,15.880C29.174,15.441,29.819,15.038,30.505,14.671C31.200,14.295,31.918,13.909,32.659,13.515C33.409,13.121,34.100,12.767,34.731,12.454C35.353,12.140,35.901,11.885,36.377,11.688C36.853,11.499,37.493,11.455,38.298,11.553C39.093,11.661,39.752,11.885,40.273,12.225C40.795,12.574,41.412,13.107,42.125,13.824C42.839,14.541,43.497,15.190,44.101,15.773C44.704,16.355,45.413,17.045,46.227,17.842C47.032,18.639,47.819,19.388,48.587,20.086C49.355,20.794,50.078,21.457,50.755,22.075C51.422,22.693,52.049,23.244,52.634,23.728C53.219,24.203,54.061,24.821,55.158,25.582C56.256,26.353,56.859,26.787,56.969,26.886C57.079,26.976,57.175,27.083,57.257,27.208C57.331,27.343,57.381,27.482,57.408,27.625C57.445,27.768,57.454,27.912,57.436,28.055C57.417,28.198,57.376,28.337,57.312,28.472C57.248,28.606,57.161,28.727,57.052,28.835C56.951,28.933,56.837,29.018,56.709,29.090C56.571,29.153,56.430,29.197,56.283,29.224C56.137,29.242,55.986,29.242,55.831,29.224C55.684,29.197,55.547,29.148,55.419,29.076C55.291,29.005,55.172,28.915,55.062,28.808C54.962,28.700,54.879,28.579,54.815,28.445C54.760,28.310,54.724,28.172,54.706,28.028C54.696,27.885,54.706,27.742,54.733,27.598C54.770,27.455,54.829,27.320,54.911,27.195C54.985,27.070,55.081,26.958,55.199,26.859C55.309,26.770,55.437,26.698,55.584,26.644C55.721,26.590,55.863,26.559,56.009,26.550C56.164,26.550,56.311,26.568,56.448,26.604C56.594,26.649,56.731,26.711,56.859,26.792C56.978,26.873,57.084,26.971,57.175,27.088C57.266,27.213,57.335,27.343,57.381,27.477C57.427,27.621,57.449,27.764,57.449,27.907C57.440,28.060,57.413,28.203,57.367,28.337C57.321,28.472,57.253,28.597,57.161,28.714C57.061,28.830,56.951,28.929,56.832,29.009C56.704,29.090,56.567,29.153,56.420,29.197C56.283,29.233,56.137,29.247,55.981,29.238C55.835,29.229,55.693,29.197,55.556,29.144C55.410,29.081,55.341,29.050,55.350,29.050C55.350,29.050,54.751,28.611,53.553,27.733C52.364,26.855,51.477,26.165,50.892,25.663C50.316,25.161,49.680,24.633,48.985,24.077C48.290,23.522,47.512,22.931,46.653,22.304C45.793,21.668,44.910,21.014,44.005,20.342C43.108,19.661,42.322,19.070,41.645,18.568C40.968,18.066,40.109,17.493,39.066,16.848C38.032,16.203,37.228,16.015,36.651,16.283C36.075,16.543,35.398,16.879,34.621,17.291C33.834,17.703,33.162,18.044,32.604,18.313C32.046,18.590,31.516,18.895,31.013,19.226C30.510,19.567,29.924,19.956,29.257,20.395C28.580,20.834,27.867,21.282,27.117,21.739C26.376,22.205,25.786,22.586,25.347,22.881C24.908,23.168,24.304,23.518,23.536,23.930C22.768,24.342,22.137,24.664,21.643,24.897C21.149,25.130,20.358,25.341,19.269,25.529C18.190,25.717,17.417,25.784,16.951,25.730C16.484,25.668,16.183,25.623,16.045,25.596C15.899,25.560,15.762,25.511,15.634,25.448C15.506,25.385,15.387,25.309,15.277,25.220C15.158,25.130,15.058,25.027,14.975,24.911C14.893,24.803,14.824,24.682,14.769,24.548C14.715,24.413,14.678,24.279,14.660,24.145C14.632,24.001,14.628,23.862,14.646,23.728C14.655,23.585,14.683,23.446,14.728,23.311C14.783,23.177,14.847,23.052,14.920,22.935C15.003,22.819,15.099,22.711,15.209,22.613C15.309,22.514,15.423,22.434,15.551,22.371C15.680,22.299,15.812,22.245,15.949,22.210C16.087,22.174,16.228,22.151,16.375,22.142C16.512,22.142,16.580,22.142,16.580,22.142ZL16.580,22.142ZZ" id="a" style="fill: none; stroke-width: 86; stroke: rgb(0, 0, 0); stroke-opacity: 1;"/></defs><use href="#a" clip-path="url('#b')"/></g></g><path d="M16.075,24.644C16.075,24.644,16.016,24.962,15.897,25.598C15.778,26.234,15.700,26.987,15.663,27.856C15.627,28.725,15.613,29.612,15.622,30.517C15.631,31.422,15.650,32.165,15.677,32.747C15.705,33.339,15.727,34.006,15.746,34.750C15.764,35.502,15.782,36.192,15.801,36.819C15.819,37.446,15.842,38.029,15.869,38.566C15.897,39.095,15.924,39.619,15.952,40.138C15.970,40.667,16.482,41.025,17.488,41.213C18.494,41.411,20.081,41.599,22.249,41.778C24.425,41.966,26.305,42.118,27.887,42.235C29.469,42.351,31.129,42.468,32.867,42.584C34.605,42.701,36.210,42.790,37.683,42.853C39.155,42.916,40.550,42.969,41.867,43.014C43.184,43.050,44.419,43.081,45.571,43.108C46.714,43.135,47.720,43.144,48.589,43.135C49.458,43.135,50.144,43.113,50.647,43.068C51.150,43.014,51.658,42.951,52.170,42.880C52.673,42.817,53.226,42.813,53.830,42.866C54.433,42.929,54.603,42.575,54.337,41.805C54.072,41.034,53.994,40.197,54.104,39.292C54.223,38.387,54.319,37.039,54.392,35.247C54.475,33.455,54.529,32.488,54.557,32.344C54.584,32.192,54.635,32.053,54.708,31.928C54.781,31.802,54.877,31.686,54.996,31.578C55.106,31.480,55.229,31.404,55.366,31.350C55.504,31.287,55.650,31.251,55.805,31.242C55.952,31.224,56.103,31.233,56.258,31.269C56.404,31.305,56.542,31.363,56.670,31.444C56.798,31.525,56.907,31.623,56.999,31.740C57.090,31.856,57.164,31.982,57.218,32.116C57.273,32.259,57.301,32.407,57.301,32.559C57.310,32.703,57.292,32.846,57.246,32.989C57.200,33.133,57.132,33.263,57.040,33.379C56.958,33.504,56.853,33.608,56.725,33.688C56.606,33.778,56.473,33.845,56.327,33.890C56.180,33.935,56.034,33.952,55.888,33.943C55.732,33.943,55.586,33.917,55.449,33.863C55.302,33.818,55.170,33.746,55.051,33.648C54.932,33.558,54.831,33.451,54.749,33.325C54.667,33.200,54.607,33.066,54.571,32.922C54.534,32.779,54.525,32.631,54.543,32.479C54.552,32.335,54.584,32.197,54.639,32.062C54.703,31.928,54.786,31.802,54.886,31.686C54.987,31.578,55.101,31.489,55.229,31.417C55.366,31.336,55.508,31.283,55.654,31.256C55.801,31.229,55.952,31.224,56.107,31.242C56.254,31.269,56.395,31.314,56.532,31.377C56.670,31.440,56.793,31.525,56.903,31.632C57.003,31.740,57.090,31.856,57.164,31.982C57.228,32.116,57.269,32.259,57.287,32.412C57.314,32.555,57.328,32.627,57.328,32.627C57.328,32.627,57.278,33.540,57.177,35.368C57.086,37.195,57.031,38.598,57.013,39.574C56.994,40.542,56.898,41.733,56.725,43.149C56.551,44.555,56.144,45.415,55.504,45.729C54.863,46.051,54.273,46.118,53.734,45.930C53.194,45.742,52.668,45.608,52.156,45.527C51.653,45.455,51.150,45.397,50.647,45.352C50.144,45.308,49.453,45.281,48.575,45.272C47.707,45.254,46.700,45.254,45.557,45.272C44.405,45.290,43.166,45.308,41.839,45.325C40.504,45.343,39.091,45.357,37.600,45.366C36.119,45.375,34.509,45.375,32.771,45.366C31.043,45.357,29.373,45.361,27.764,45.379C26.154,45.397,24.156,45.388,21.768,45.352C19.381,45.317,17.685,45.249,16.679,45.151C15.663,45.052,14.822,44.945,14.154,44.828C13.468,44.712,12.865,44.340,12.343,43.713C11.822,43.095,11.543,42.477,11.507,41.858C11.470,41.240,11.465,40.667,11.493,40.138C11.511,39.619,11.539,39.095,11.575,38.566C11.603,38.029,11.626,37.446,11.644,36.819C11.662,36.192,11.680,35.502,11.699,34.750C11.717,33.997,11.740,33.325,11.767,32.734C11.804,32.143,11.836,31.372,11.863,30.423C11.900,29.473,11.936,28.761,11.973,28.286C12.000,27.802,12.051,27.296,12.124,26.768C12.188,26.230,12.270,25.643,12.371,25.007C12.481,24.371,12.554,23.986,12.590,23.851C12.636,23.717,12.696,23.587,12.769,23.462C12.842,23.336,12.929,23.224,13.029,23.126C13.130,23.027,13.244,22.938,13.372,22.857C13.491,22.785,13.619,22.727,13.757,22.682C13.894,22.638,14.035,22.611,14.182,22.602C14.319,22.593,14.461,22.602,14.607,22.629C14.744,22.647,14.881,22.687,15.019,22.750C15.147,22.803,15.270,22.875,15.389,22.965C15.508,23.045,15.613,23.144,15.705,23.260C15.787,23.368,15.860,23.489,15.924,23.623C15.988,23.748,16.034,23.883,16.061,24.026C16.089,24.161,16.098,24.295,16.089,24.429C16.080,24.573,16.075,24.644,16.075,24.644ZL16.075,24.644ZL16.075,24.644Z" style="fill: rgb(0, 0, 0); fill-opacity: 1;" class="fills"/><path d="M18.274,26.397C18.274,26.397,18.640,26.585,19.372,26.961C20.103,27.328,20.867,27.749,21.663,28.224C22.459,28.708,23.241,29.187,24.009,29.662C24.768,30.137,25.445,30.540,26.039,30.871C26.643,31.194,27.196,31.454,27.699,31.651C28.202,31.839,28.751,31.982,29.345,32.081C29.940,32.188,30.512,32.327,31.060,32.497C31.609,32.677,32.126,32.762,32.611,32.753C33.105,32.735,33.708,32.686,34.422,32.605C35.126,32.533,35.949,32.372,36.891,32.121C37.824,31.879,38.620,31.669,39.278,31.490C39.927,31.310,40.591,31.118,41.267,30.912C41.935,30.706,42.598,30.509,43.257,30.321C43.915,30.132,44.542,29.953,45.136,29.783C45.721,29.613,46.279,29.456,46.810,29.313C47.340,29.160,48.621,28.815,50.651,28.278C52.682,27.740,53.802,27.467,54.012,27.458C54.223,27.458,54.424,27.485,54.616,27.539C54.817,27.593,55.000,27.678,55.165,27.794C55.338,27.902,55.485,28.041,55.604,28.211C55.723,28.372,55.814,28.547,55.878,28.735C55.942,28.932,55.970,29.129,55.960,29.326C55.960,29.532,55.928,29.729,55.864,29.917C55.791,30.105,55.691,30.280,55.563,30.441C55.435,30.603,55.284,30.737,55.110,30.845C54.936,30.952,54.749,31.033,54.547,31.086C54.355,31.140,54.154,31.158,53.944,31.140C53.743,31.122,53.546,31.078,53.354,31.006C53.162,30.925,52.988,30.818,52.832,30.683C52.677,30.549,52.549,30.397,52.448,30.226C52.348,30.047,52.275,29.859,52.229,29.662C52.192,29.465,52.188,29.268,52.215,29.071C52.233,28.865,52.288,28.672,52.380,28.493C52.471,28.314,52.590,28.153,52.736,28.009C52.883,27.866,53.047,27.749,53.230,27.660C53.413,27.570,53.605,27.512,53.807,27.485C54.008,27.458,54.214,27.463,54.424,27.499C54.625,27.534,54.817,27.597,55.000,27.687C55.174,27.776,55.334,27.897,55.480,28.049C55.617,28.202,55.727,28.368,55.810,28.547C55.892,28.735,55.942,28.927,55.960,29.125C55.979,29.331,55.965,29.532,55.919,29.729C55.874,29.926,55.796,30.110,55.686,30.280C55.576,30.450,55.439,30.598,55.274,30.724C55.119,30.849,54.945,30.948,54.753,31.019C54.561,31.091,54.465,31.127,54.465,31.127C54.465,31.127,53.482,31.378,51.515,31.879C49.558,32.372,48.328,32.681,47.825,32.807C47.322,32.932,46.782,33.080,46.206,33.250C45.630,33.420,45.045,33.604,44.450,33.801C43.856,33.989,43.211,34.222,42.516,34.500C41.812,34.777,41.130,35.037,40.472,35.279C39.813,35.512,38.949,35.785,37.879,36.099C36.809,36.412,35.784,36.614,34.806,36.704C33.827,36.802,33.004,36.825,32.336,36.771C31.659,36.717,31.092,36.569,30.635,36.327C30.178,36.085,29.725,35.870,29.277,35.682C28.829,35.485,28.371,35.284,27.905,35.078C27.429,34.872,26.913,34.589,26.355,34.231C25.797,33.882,25.225,33.528,24.640,33.169C24.055,32.802,23.382,32.408,22.623,31.987C21.855,31.566,21.082,31.163,20.305,30.777C19.527,30.383,18.764,30.020,18.014,29.689C17.273,29.357,16.847,29.156,16.738,29.084C16.628,29.021,16.532,28.945,16.450,28.856C16.358,28.757,16.280,28.654,16.216,28.547C16.152,28.439,16.107,28.327,16.079,28.211C16.043,28.085,16.020,27.960,16.011,27.834C16.011,27.718,16.024,27.602,16.052,27.485C16.079,27.360,16.120,27.239,16.175,27.122C16.230,27.015,16.299,26.912,16.381,26.813C16.463,26.715,16.555,26.630,16.655,26.558C16.756,26.486,16.866,26.423,16.985,26.370C17.104,26.325,17.227,26.294,17.355,26.276C17.483,26.258,17.607,26.253,17.725,26.262C17.854,26.271,17.977,26.298,18.096,26.343C18.215,26.379,18.274,26.397,18.274,26.397ZL18.274,26.397ZL18.274,26.397Z" style="fill: rgb(0, 0, 0); fill-opacity: 1;" class="fills"/></g></svg>