<svg version="1.1" xmlns="http://www.w3.org/2000/svg" viewBox="0 0 93.57179289151179 60.26316672431584" width="93.57179289151179" height="60.26316672431584" class="excalidraw-svg">
  <!-- svg-source:excalidraw -->
  
  <defs>
    <style class="style-fonts">
      
    </style>
    
  </defs>
  <g stroke-linecap="round"><g transform="translate(19.776702901208807 11.863834247783274) rotate(1.9015510939253262 30.831869127326627 7.38857577935174)"><path d="M0.93 -0.88 C11.04 1.6, 51.53 12.68, 61.72 15.16 M-0.04 1.28 C9.82 3.36, 50.54 10.96, 60.81 13.24" stroke="#1e1e1e" stroke-width="2" fill="none"></path></g></g><mask></mask><g stroke-linecap="round"><g transform="translate(81.17949783054324 26.225329445416122) rotate(1.9015510939253262 -34.924887691738796 6.5633906881735555)"><path d="M0.9 -0.78 C-10.59 1.35, -58.12 9.84, -69.97 12.14 M-0.09 1.42 C-11.65 3.73, -59.14 11.01, -70.98 13.16" stroke="#1e1e1e" stroke-width="2" fill="none"></path></g></g><mask></mask><g stroke-linecap="round"><g transform="translate(80.70039142249398 26.627847304368174) rotate(1.9015510939253262 -27.102570172061895 11.672828392043591)"><path d="M0.09 0.44 C-9 4.35, -44.71 20.89, -53.95 24.53 M-1.32 -0.38 C-10.61 3.75, -46.14 19.13, -54.77 23.03" stroke="#1e1e1e" stroke-width="2" fill="none"></path></g></g><mask></mask><g stroke-linecap="round"><g transform="translate(26.03165830640839 47.48561185285739) rotate(1.9015510939253262 -0.10919359704858778 -6.126619486666229)"><path d="M-0.14 0.4 C-0.13 -1.56, 0.03 -10.11, 0.03 -12.21 M0.78 0.13 C0.76 -1.69, -0.07 -9.53, -0.28 -11.49" stroke="#1e1e1e" stroke-width="2" fill="none"></path></g></g><mask></mask><g stroke-linecap="round"><g transform="translate(10.530632285053201 36.742435600377334) rotate(1.9015510939253262 7.147987074255056 -7.118339204315227)"><path d="M0.5 -0.23 C2.8 -2.61, 11.62 -11.84, 14.01 -14.25 M0.1 -0.83 C2.55 -3.12, 12.65 -11.31, 15.09 -13.56" stroke="#1e1e1e" stroke-width="2" fill="none"></path></g></g><mask></mask><g stroke-linecap="round"><g transform="translate(19.546614000183638 11.398894857119586) rotate(1.9015510939253262 2.968656130638749 5.726275177746388)"><path d="M-0.27 0.19 C0.86 2.08, 5.27 9.45, 6.25 11.37 M0.59 -0.18 C1.72 1.79, 4.96 10.21, 5.98 12.03" stroke="#1e1e1e" stroke-width="2" fill="none"></path></g></g><mask></mask><g stroke-linecap="round"><g transform="translate(25.981843531744005 24.429355085589577) rotate(1.9015510939253262 28.354551276979464 0.5976967026683013)"><path d="M-1.15 -0.1 C8.58 -0.04, 47.79 0.2, 57.6 0.48 M0.45 -1.2 C10.16 -1.01, 47.61 1.54, 57.12 1.64" stroke="#1e1e1e" stroke-width="1" fill="none"></path></g></g><mask></mask></svg>