<svg version="1.1" xmlns="http://www.w3.org/2000/svg" viewBox="0 0 66.29652159139837 65.69266303260272" width="66.29652159139837" height="65.69266303260272" class="excalidraw-svg">
  <!-- svg-source:excalidraw -->
  
  <defs>
    <style class="style-fonts">
      
    </style>
    
  </defs>
  <g stroke-linecap="round" transform="translate(10 10.000000000000014) rotate(0 23.148260795699187 22.846331516301362)"><path d="M1.32 0.08 L46.15 1.12 L47.4 43.71 L-1.32 44.12" stroke="none" stroke-width="0" fill="#000000"></path><path d="M1.55 0.97 C12.64 -0.65, 27.04 1.31, 46.27 0.19 M-0.49 0.01 C13.26 0.47, 27.05 0.86, 46.64 0.96 M46.45 -1.43 C46.78 13.3, 45.26 26.95, 48.02 44.17 M47.19 -0.24 C45.85 15.39, 45.35 31.63, 46.98 46.47 M47.06 46.75 C30.54 44.36, 17.33 44.35, 0.91 46.79 M45.98 45.59 C30.17 45.14, 15.18 44.75, -0.57 46.08 M-0.63 44.34 C1.16 36.27, 1.25 26, 0.57 1.95 M-0.7 44.93 C-0.98 36.02, 0.23 26.87, -0.41 -0.41" stroke="#000000" stroke-width="4" fill="none"></path></g><g transform="translate(44.42048303023441 26.10314829421901) rotate(0 -11.070909173254698 6.944477086923378)" stroke="none"><path fill="#ffffff" d="M -1.27,0 Q -1.27,0 -1.29,-0.46 -1.31,-0.92 -1.36,-1.47 -1.41,-2.02 -1.62,-2.54 -1.84,-3.07 -2.10,-3.69 -2.37,-4.31 -2.95,-4.78 -3.54,-5.26 -4.24,-5.60 -4.95,-5.93 -5.57,-6.02 -6.20,-6.11 -6.88,-6.10 -7.57,-6.09 -8.19,-6.09 -8.80,-6.09 -9.49,-6.09 -10.18,-6.09 -10.77,-6.09 -11.35,-6.09 -11.93,-6.09 -12.50,-6.09 -13.20,-6.08 -13.90,-6.07 -14.45,-6.06 -14.99,-6.06 -15.76,-5.76 -16.53,-5.47 -17.17,-5.19 -17.81,-4.90 -18.30,-4.53 -18.80,-4.16 -19.35,-3.73 -19.90,-3.29 -20.41,-2.96 -20.93,-2.63 -21.27,-2.10 -21.62,-1.56 -21.97,-0.97 -22.32,-0.37 -22.43,0.49 -22.53,1.36 -22.61,1.91 -22.69,2.47 -22.79,3.02 -22.88,3.57 -22.99,4.10 -23.09,4.62 -23.10,5.26 -23.11,5.90 -23.11,6.58 -23.11,7.26 -23.11,7.84 -23.10,8.43 -23.10,9.09 -23.10,9.75 -23.10,10.44 -23.10,11.13 -23.10,11.79 -23.10,12.45 -23.10,13.06 -23.10,13.68 -22.77,14.21 -22.45,14.74 -22.16,15.20 -21.87,15.66 -21.61,16.15 -21.36,16.64 -20.95,17.17 -20.55,17.71 -20.06,17.50 -19.57,17.29 -18.90,17.56 -18.22,17.83 -17.58,18.35 -16.93,18.86 -16.08,19.14 -15.23,19.42 -14.69,19.52 -14.15,19.61 -13.42,19.71 -12.70,19.81 -12.06,19.74 -11.43,19.68 -10.83,19.67 -10.23,19.65 -9.72,19.48 -9.21,19.31 -8.45,19.20 -7.68,19.09 -7.12,19.00 -6.57,18.92 -6.03,18.89 -5.50,18.86 -4.88,18.85 -4.26,18.85 -3.64,18.75 -3.03,18.64 -2.46,18.36 -1.88,18.08 -1.34,17.75 -0.79,17.42 0.04,16.98 0.88,16.55 0.90,15.99 0.91,15.43 0.92,14.75 0.93,14.07 0.87,13.46 0.81,12.84 0.39,12.48 -0.02,12.12 -0.46,11.76 -0.90,11.41 -1.54,11.16 -2.19,10.92 -3.10,10.33 -4.00,9.73 -4.59,9.56 -5.17,9.39 -5.77,9.46 -6.36,9.53 -6.94,9.53 -7.53,9.53 -8.20,9.53 -8.87,9.52 -9.40,9.60 -9.94,9.67 -10.63,9.82 -11.32,9.98 -11.91,10.24 -12.50,10.50 -12.49,11.17 -12.48,11.83 -11.88,11.83 -11.27,11.82 -10.55,11.83 -9.83,11.83 -9.13,11.83 -8.44,11.83 -7.82,11.83 -7.20,11.82 -6.85,11.38 -6.49,10.95 -6.48,10.14 -6.48,9.33 -6.46,8.66 -6.45,8.00 -6.55,7.29 -6.64,6.58 -6.75,5.87 -6.86,5.16 -7.02,4.53 -7.18,3.89 -7.38,3.39 -7.57,2.89 -7.90,2.35 -8.23,1.80 -8.76,1.62 -9.29,1.44 -9.89,1.19 -10.49,0.94 -11.02,1.12 -11.54,1.30 -12.56,2.58 -13.57,3.87 -13.73,4.12 -13.89,4.37 -14.12,4.56 -14.35,4.75 -14.63,4.86 -14.91,4.96 -15.21,4.97 -15.50,4.98 -15.79,4.89 -16.07,4.81 -16.32,4.64 -16.56,4.46 -16.74,4.22 -16.91,3.98 -17.00,3.70 -17.09,3.41 -17.09,3.11 -17.08,2.82 -16.98,2.53 -16.88,2.25 -16.69,2.02 -16.51,1.79 -16.26,1.62 -16.01,1.46 -15.72,1.39 -15.43,1.31 -15.13,1.34 -14.83,1.36 -14.56,1.48 -14.28,1.59 -14.06,1.79 -13.84,1.99 -13.69,2.25 -13.54,2.50 -13.48,2.80 -13.42,3.09 -13.46,3.39 -13.50,3.68 -13.63,3.95 -13.76,4.22 -13.97,4.43 -14.18,4.64 -14.45,4.78 -14.71,4.91 -15.01,4.95 -15.30,5.00 -15.60,4.94 -15.89,4.89 -16.15,4.74 -16.41,4.60 -16.61,4.38 -16.81,4.15 -16.93,3.88 -17.05,3.61 -17.08,3.31 -17.10,3.01 -17.03,2.72 -16.96,2.43 -16.96,2.43 -16.96,2.43 -15.67,0.74 -14.37,-0.94 -13.82,-1.46 -13.27,-1.98 -12.40,-2.29 -11.53,-2.61 -10.92,-2.59 -10.31,-2.58 -9.53,-2.35 -8.75,-2.11 -8.08,-1.92 -7.42,-1.73 -6.81,-1.45 -6.21,-1.17 -5.68,-0.68 -5.16,-0.18 -4.78,0.44 -4.41,1.07 -4.17,1.67 -3.93,2.27 -3.64,3.16 -3.36,4.05 -3.17,4.78 -2.99,5.51 -2.98,6.09 -2.98,6.66 -2.89,7.57 -2.80,8.49 -2.79,9.27 -2.78,10.05 -2.80,10.65 -2.82,11.25 -2.99,12.11 -3.16,12.96 -3.46,13.47 -3.75,13.97 -4.31,14.43 -4.86,14.89 -5.45,15.11 -6.04,15.32 -6.86,15.43 -7.67,15.54 -8.32,15.54 -8.96,15.54 -9.65,15.54 -10.34,15.54 -11.06,15.53 -11.77,15.51 -12.58,15.42 -13.39,15.32 -13.99,14.99 -14.58,14.66 -15.18,14.07 -15.79,13.47 -16.07,12.87 -16.36,12.27 -16.44,11.54 -16.51,10.80 -16.38,10.20 -16.26,9.59 -15.90,9.03 -15.55,8.47 -14.95,7.90 -14.34,7.33 -13.73,7.04 -13.12,6.75 -12.50,6.52 -11.88,6.30 -11.06,6.13 -10.24,5.95 -9.29,5.86 -8.35,5.76 -7.72,5.76 -7.10,5.76 -6.52,5.76 -5.94,5.76 -5.29,5.78 -4.64,5.80 -3.72,6.02 -2.81,6.23 -2.32,6.59 -1.83,6.96 -1.26,7.22 -0.69,7.48 -0.02,7.81 0.65,8.15 1.41,8.58 2.18,9.01 2.50,9.45 2.82,9.89 3.35,10.33 3.87,10.77 4.18,11.49 4.49,12.22 4.59,13.15 4.69,14.08 4.69,14.88 4.69,15.67 4.58,16.29 4.47,16.91 4.28,17.66 4.09,18.40 3.54,19.03 2.99,19.65 2.40,20.00 1.82,20.34 1.17,20.72 0.52,21.09 -0.23,21.31 -0.99,21.53 -1.48,21.86 -1.98,22.18 -2.94,22.38 -3.91,22.59 -4.45,22.60 -4.99,22.60 -5.60,22.60 -6.22,22.61 -7.04,22.69 -7.87,22.77 -8.57,23.07 -9.26,23.37 -9.85,23.39 -10.45,23.41 -11.11,23.43 -11.76,23.45 -12.76,23.42 -13.76,23.40 -14.52,23.30 -15.28,23.20 -15.90,23.08 -16.52,22.96 -17.21,22.82 -17.89,22.69 -18.69,21.99 -19.49,21.29 -19.99,21.11 -20.49,20.94 -21.02,20.85 -21.55,20.77 -22.28,20.45 -23.01,20.13 -23.59,19.51 -24.17,18.88 -24.34,18.33 -24.50,17.79 -24.95,17.40 -25.39,17.02 -25.75,16.41 -26.11,15.81 -26.46,14.78 -26.81,13.75 -26.81,13.10 -26.81,12.45 -26.81,11.79 -26.81,11.13 -26.81,10.44 -26.81,9.75 -26.81,9.09 -26.81,8.43 -26.80,7.84 -26.80,7.26 -26.80,6.57 -26.80,5.88 -26.79,5.25 -26.78,4.62 -26.66,3.85 -26.55,3.08 -26.39,2.24 -26.24,1.39 -26.11,0.86 -25.97,0.33 -25.92,-0.31 -25.86,-0.95 -25.60,-1.72 -25.35,-2.49 -24.75,-3.29 -24.15,-4.08 -23.80,-4.59 -23.44,-5.10 -22.88,-5.53 -22.32,-5.97 -21.85,-6.37 -21.38,-6.77 -20.80,-7.13 -20.21,-7.49 -19.48,-7.98 -18.74,-8.48 -18.24,-8.67 -17.74,-8.87 -17.16,-9.06 -16.58,-9.25 -15.80,-9.44 -15.01,-9.63 -14.46,-9.63 -13.90,-9.62 -13.20,-9.61 -12.50,-9.60 -11.93,-9.60 -11.35,-9.60 -10.77,-9.60 -10.18,-9.60 -9.49,-9.60 -8.80,-9.60 -7.98,-9.59 -7.16,-9.59 -6.54,-9.55 -5.91,-9.51 -5.20,-9.39 -4.49,-9.26 -3.78,-8.97 -3.07,-8.69 -2.54,-8.46 -2.01,-8.24 -1.43,-7.75 -0.85,-7.25 -0.35,-6.74 0.14,-6.23 0.51,-5.37 0.89,-4.50 1.06,-3.97 1.23,-3.43 1.32,-2.72 1.41,-2.02 1.36,-1.47 1.31,-0.92 1.29,-0.46 1.27,0 1.26,0.15 1.24,0.30 1.18,0.45 1.13,0.59 1.04,0.72 0.95,0.84 0.84,0.95 0.72,1.05 0.59,1.12 0.45,1.19 0.30,1.23 0.15,1.27 -0.00,1.27 -0.15,1.27 -0.30,1.23 -0.45,1.19 -0.59,1.12 -0.72,1.05 -0.84,0.95 -0.95,0.84 -1.04,0.72 -1.13,0.59 -1.18,0.45 -1.24,0.30 -1.26,0.15 -1.27,-0.00 -1.27,-0.00 L -1.27,0 Z"></path></g></svg>