<svg version="1.1" xmlns="http://www.w3.org/2000/svg" viewBox="0 0 58.7309298969132 21.14558002619998" width="58.7309298969132" height="21.14558002619998" class="excalidraw-svg">
  <!-- svg-source:excalidraw -->
  
  <defs>
    <style class="style-fonts">
      
    </style>
    
  </defs>
  <g stroke-linecap="round"><g transform="translate(10.068473508439446 10.47982572936445) rotate(0 19.296991440017155 0.2390759539754157)"><path d="M0 0 C-0.03 -0.04, -0.05 -0.08, -0.07 -0.1 M0 0 C-0.02 -0.03, -0.05 -0.07, -0.07 -0.1 M-0.07 -0.1 C7.51 -0.82, 16.1 -0.47, 38.66 0.58 M-0.07 -0.1 C13.78 -0.1, 28.12 0.97, 38.66 0.58" stroke="#1e1e1e" stroke-width="2" fill="none"></path></g><g transform="translate(10.068473508439446 10.47982572936445) rotate(0 19.296991440017155 0.2390759539754157)"><path d="M20.48 7.25 C27.07 5.34, 35.3 1.08, 38.66 0.58 M20.48 7.25 C27.7 5.28, 33.75 2.3, 38.66 0.58" stroke="#1e1e1e" stroke-width="2" fill="none"></path></g><g transform="translate(10.068473508439446 10.47982572936445) rotate(0 19.296991440017155 0.2390759539754157)"><path d="M20.44 -6 C27 -2.62, 35.24 -1.58, 38.66 0.58 M20.44 -6 C27.65 -3.04, 33.71 -1.08, 38.66 0.58" stroke="#1e1e1e" stroke-width="2" fill="none"></path></g></g><mask></mask></svg>